<?xml version="1.0" standalone="no"?>
<!DOCTYPE svg PUBLIC "-//W3C//DTD SVG 20010904//EN"
 "http://www.w3.org/TR/2001/REC-SVG-20010904/DTD/svg10.dtd">
<svg version="1.0" xmlns="http://www.w3.org/2000/svg"
 width="712.000000pt" height="712.000000pt" viewBox="0 0 712.000000 712.000000"
 preserveAspectRatio="xMidYMid meet">
<metadata>
Created by potrace 1.14, written by Peter Selinger 2001-2017
</metadata>
<g transform="translate(0.000000,712.000000) scale(0.100000,-0.100000)"
fill="#000000" stroke="none">
<path d="M1219 5905 c-121 -30 -293 -177 -485 -413 -10 -13 -28 -34 -39 -47
-11 -13 -33 -43 -50 -65 -16 -23 -41 -55 -56 -73 -46 -58 -172 -260 -226 -365
-92 -175 -149 -322 -213 -551 -14 -54 -15 -58 -40 -196 -17 -97 -24 -153 -36
-310 -4 -57 -4 -413 1 -455 2 -19 6 -75 10 -125 13 -183 26 -270 76 -499 77
-350 226 -688 435 -983 243 -344 511 -600 642 -615 81 -10 163 55 175 138 10
67 -29 125 -222 322 -374 384 -601 812 -705 1332 -14 69 -28 151 -31 183 -4
32 -8 68 -11 80 -22 114 -22 582 0 717 3 14 7 47 11 73 3 26 10 71 16 100 5
29 12 66 15 82 11 67 91 331 112 372 6 10 27 59 48 108 20 50 43 97 51 106 7
8 13 19 13 24 0 16 138 242 182 300 154 198 150 193 321 369 180 186 221 254
189 317 -34 65 -105 94 -183 74z"/>
<path d="M5789 5897 c-82 -42 -100 -99 -57 -175 28 -49 51 -76 187 -217 59
-60 129 -135 155 -165 68 -75 256 -330 256 -346 0 -3 8 -18 19 -32 36 -52 110
-202 159 -324 47 -114 57 -146 83 -238 6 -19 15 -51 20 -70 5 -19 12 -48 15
-65 3 -16 9 -43 14 -60 8 -29 31 -160 35 -200 1 -11 6 -60 10 -110 5 -49 9
-157 9 -240 1 -427 -52 -729 -199 -1135 -34 -94 -147 -309 -223 -425 -107
-164 -219 -301 -365 -450 -129 -131 -153 -159 -180 -212 -36 -68 -9 -162 58
-203 137 -85 360 86 698 536 225 299 387 650 478 1034 39 168 73 416 85 624 5
89 5 443 0 496 -13 134 -18 171 -52 374 -11 64 -58 227 -96 331 -121 332 -310
639 -592 963 -60 69 -216 222 -226 222 -4 0 -18 10 -31 21 -32 29 -135 76
-181 82 -26 4 -49 -1 -79 -16z"/>
<path d="M3326 5626 c13 -52 9 -186 -8 -298 -41 -270 -121 -504 -291 -848 -40
-80 -74 -147 -78 -150 -3 -3 -20 -32 -39 -65 -18 -33 -41 -73 -50 -90 -35 -60
-129 -205 -278 -429 -197 -294 -280 -461 -332 -666 -29 -117 -35 -174 -34
-335 1 -118 6 -169 23 -240 85 -350 301 -649 666 -919 35 -26 33 -23 -15 26
-47 48 -94 125 -131 213 -23 56 -43 175 -43 260 1 55 11 188 18 220 32 149 87
315 146 440 18 39 34 76 36 83 1 7 8 20 15 28 7 8 22 36 34 62 12 26 41 78 63
116 23 37 42 69 42 71 0 4 226 347 237 360 26 30 171 280 235 403 l75 142 26
-55 c35 -70 74 -218 86 -320 12 -112 6 -331 -14 -455 -35 -224 -26 -397 29
-512 80 -169 288 -242 563 -198 l68 11 25 -30 c94 -111 84 -315 -25 -535 -30
-61 -60 -120 -67 -131 -24 -37 -114 -160 -129 -175 -8 -9 -23 -27 -34 -40
l-20 -25 20 15 c11 8 22 17 25 20 3 3 32 25 65 50 70 53 264 243 321 315 21
28 41 52 44 55 13 12 110 159 129 195 12 22 25 47 30 55 56 101 112 274 136
413 14 90 17 271 5 337 -4 25 -10 61 -13 80 -25 190 -167 504 -322 713 l-42
57 -25 -37 c-14 -21 -47 -78 -74 -127 -59 -108 -138 -192 -192 -203 -109 -22
-128 13 -93 167 5 25 12 58 15 74 3 16 10 52 15 80 27 136 35 210 35 341 0
295 -59 492 -245 825 -15 28 -93 139 -114 163 -5 7 -28 35 -49 62 -48 62 -323
336 -391 390 -27 22 -56 46 -63 53 -19 18 -23 15 -16 -12z"/>
</g>
</svg>
